<svg width="24" height="24" viewBox="0 0 24 24" fill="none" xmlns="http://www.w3.org/2000/svg">
<g clip-path="url(#clip0_3135_49133)">
<path d="M12 12L21 3" stroke="#33C0DB" stroke-width="1.5" stroke-linecap="round" stroke-linejoin="round"/>
<path d="M18.3646 5.63697C16.7705 4.04662 14.6375 3.1125 12.3877 3.01941C10.1379 2.92632 7.93503 3.68105 6.21499 5.13429C4.49495 6.58752 3.38299 8.63341 3.09909 10.8672C2.8152 13.101 3.38005 15.36 4.6819 17.1973C5.98374 19.0346 7.92776 20.3163 10.1294 20.789C12.331 21.2616 14.6298 20.8907 16.571 19.7497C18.5123 18.6087 19.9546 16.7806 20.6125 14.6271C21.2705 12.4736 21.0963 10.1516 20.1243 8.12041" stroke="#33C0DB" stroke-width="1.5" stroke-linecap="round" stroke-linejoin="round"/>
<path d="M15.18 8.81805C14.4356 8.07455 13.4543 7.61538 12.4065 7.52035C11.3587 7.42532 10.3107 7.70044 9.44466 8.29788C8.57864 8.89532 7.94934 9.77732 7.66612 10.7906C7.3829 11.8039 7.46367 12.8843 7.89439 13.8442C8.32511 14.8041 9.07856 15.5828 10.0238 16.0448C10.969 16.5068 12.0462 16.6231 13.0683 16.3733C14.0903 16.1236 14.9925 15.5236 15.6181 14.6777C16.2437 13.8318 16.5531 12.7934 16.4925 11.743" stroke="#33C0DB" stroke-width="1.5" stroke-linecap="round" stroke-linejoin="round"/>
</g>
<defs>
<clipPath id="clip0_3135_49133">
<rect width="24" height="24" fill="white"/>
</clipPath>
</defs>
</svg>
