<svg width="24" height="24" viewBox="0 0 24 24" fill="none" xmlns="http://www.w3.org/2000/svg">
<g clip-path="url(#clip0_1149_5853)">
<path d="M3 12C3 9.61305 3.94821 7.32387 5.63604 5.63604C7.32387 3.94821 9.61305 3 12 3C14.3869 3 16.6761 3.94821 18.364 5.63604C20.0518 7.32387 21 9.61305 21 12V17.25C20.9998 17.5273 20.9228 17.7991 20.7775 18.0353C20.6321 18.2715 20.4242 18.4627 20.1767 18.5878C19.9292 18.7129 19.6519 18.767 19.3755 18.744C19.0992 18.721 18.8346 18.6218 18.6113 18.4575C17.1122 17.3681 14.9062 16.5 12 16.5C9.09375 16.5 6.88781 17.3681 5.38875 18.4575C5.16536 18.6218 4.9008 18.721 4.62445 18.744C4.3481 18.767 4.07078 18.7129 3.8233 18.5878C3.57582 18.4627 3.36786 18.2715 3.22252 18.0353C3.07718 17.7991 3.00016 17.5273 3 17.25V12Z" stroke="#1F2933" stroke-width="1.5" stroke-linecap="round" stroke-linejoin="round"/>
<path d="M3 14.25C5.59644 12.3027 8.75445 11.25 12 11.25C15.2456 11.25 18.4036 12.3027 21 14.25" stroke="#1F2933" stroke-width="1.5" stroke-linecap="round" stroke-linejoin="round"/>
<path d="M8.28711 11.7131C8.67805 6.32156 11.9996 3 11.9996 3C11.9996 3 15.3212 6.32156 15.7121 11.7131" stroke="#1F2933" stroke-width="1.5" stroke-linecap="round" stroke-linejoin="round"/>
</g>
<defs>
<clipPath id="clip0_1149_5853">
<rect width="24" height="24" fill="white"/>
</clipPath>
</defs>
</svg>
