<svg width="21" height="20" viewBox="0 0 21 20" fill="none" xmlns="http://www.w3.org/2000/svg">
<g clip-path="url(#clip0_3317_8078)">
<path d="M12.843 10.3544C12.9295 10.2968 13.0291 10.2617 13.1326 10.2523C13.2362 10.2429 13.3404 10.2594 13.4359 10.3005L17.1203 11.9512C17.2445 12.0043 17.3481 12.0962 17.4157 12.2131C17.4833 12.3299 17.5112 12.4656 17.4953 12.5997C17.3739 13.5067 16.9273 14.3389 16.2383 14.9413C15.5494 15.5437 14.6652 15.8754 13.75 15.8747C10.9321 15.8747 8.22957 14.7553 6.23699 12.7627C4.24442 10.7701 3.125 8.0676 3.125 5.24968C3.1243 4.33452 3.456 3.45026 4.05841 2.76134C4.66082 2.07242 5.49293 1.62574 6.4 1.50436C6.53409 1.48844 6.66973 1.51636 6.78662 1.58396C6.90351 1.65156 6.99537 1.7552 7.04844 1.87936L8.69922 5.56686C8.73978 5.66157 8.7563 5.76484 8.7473 5.86748C8.7383 5.97012 8.70407 6.06894 8.64766 6.15515L6.97813 8.1403C6.9189 8.22966 6.88388 8.33286 6.87649 8.43981C6.86909 8.54676 6.88958 8.6538 6.93594 8.75046C7.58203 10.0731 8.94922 11.4239 10.2758 12.0637C10.373 12.1099 10.4805 12.1299 10.5878 12.1218C10.695 12.1138 10.7983 12.0778 10.8875 12.0176L12.843 10.3544Z" stroke="#1F2933" stroke-width="1.25" stroke-linecap="round" stroke-linejoin="round"/>
</g>
<defs>
<clipPath id="clip0_3317_8078">
<rect width="20.1896" height="20" fill="white" transform="translate(0.151611)"/>
</clipPath>
</defs>
</svg>
