<svg width="20" height="19" viewBox="0 0 20 19" fill="none" xmlns="http://www.w3.org/2000/svg">
<path d="M1 4.27734C1 3.17277 1.89543 2.27734 3 2.27734H9C10.1046 2.27734 11 3.17277 11 4.27734V15.2773C11 16.3819 10.1046 17.2773 9 17.2773H3C1.89543 17.2773 1 16.3819 1 15.2773V4.27734Z" fill="#F3F5F8" stroke="#1F2933" stroke-width="1.5"/>
<path d="M6.45904 5.42795C6.17316 4.36101 6.80633 3.26434 7.87326 2.97846L13.3232 1.51816C14.3901 1.23228 15.4868 1.86544 15.7726 2.93237L18.7303 13.9704C19.0162 15.0374 18.383 16.134 17.3161 16.4199L11.8662 17.8802C10.7992 18.1661 9.70257 17.5329 9.41668 16.466L6.45904 5.42795Z" fill="#F3F5F8" stroke="#1F2933" stroke-width="1.5"/>
</svg>
