<svg width="20" height="20" viewBox="0 0 20 20" fill="none" xmlns="http://www.w3.org/2000/svg">
<path d="M16.4091 16.643C16.1227 16.9926 15.7564 17.2681 15.341 17.4461L9.91159 19.7542C9.2297 20.0419 8.46154 20.0476 7.77549 19.7699C7.08943 19.4923 6.54143 18.954 6.25159 18.273L5.19284 15.7973L5.18034 15.8036L2.78097 10.1661L1.48534 7.58108C1.33953 7.28881 1.25947 6.96815 1.25079 6.64164C1.24211 6.31512 1.30503 5.99067 1.43511 5.69106C1.5652 5.39145 1.75931 5.12396 2.0038 4.90737C2.24829 4.69078 2.53724 4.53034 2.85034 4.43733C2.82665 3.97482 2.94686 3.51632 3.19444 3.12493C3.44201 2.73353 3.80478 2.42847 4.23284 2.25171C4.49838 2.14182 4.78297 2.08532 5.07034 2.08546H5.13284C5.15368 2.03129 5.1768 1.97837 5.20222 1.92671C5.33188 1.65885 5.51439 1.41999 5.73877 1.22451C5.96314 1.02902 6.22475 0.880954 6.50784 0.789206C6.72953 0.715222 6.96164 0.67724 7.19534 0.676706L7.19472 0.680456C7.60476 0.68145 8.00674 0.79448 8.35722 1.00733C8.53874 0.85409 8.75166 0.742512 8.98097 0.680456C9.23501 0.611343 9.50229 0.606756 9.75856 0.667112C10.0148 0.727467 10.252 0.850856 10.4485 1.02608C10.6635 1.09233 10.8685 1.18983 11.0566 1.31733C11.216 1.20733 11.3978 1.12421 11.5978 1.07608H11.5997C12.4872 0.864206 13.3197 1.45358 13.536 2.26608V2.26733L14.1528 4.56546C14.6072 4.47565 15.0782 4.52825 15.5016 4.71608C15.6749 4.79483 15.8349 4.89233 15.9816 5.00858C16.1895 4.93657 16.4099 4.90784 16.6292 4.92418C16.8486 4.94052 17.0623 5.00157 17.2572 5.10358C18.0853 5.53358 18.3085 6.49483 17.9822 7.25983L17.9797 7.26546L17.9772 7.27046C17.2085 8.98483 16.8085 10.0286 16.7553 10.7717V10.7773L16.7547 10.7823C16.7464 10.8907 16.7364 11.004 16.7247 11.1223L17.7035 13.8905C17.8919 14.4273 17.8618 15.0168 17.6197 15.5317C17.3776 16.0466 16.9428 16.4457 16.4091 16.643ZM15.4966 6.36546C15.3951 6.14229 15.2174 5.96258 14.9953 5.85858C14.8752 5.80507 14.7456 5.77589 14.6141 5.77271C14.4826 5.76954 14.3518 5.79243 14.2292 5.84008C14.1066 5.88773 13.9946 5.95918 13.8998 6.05032C13.8049 6.14146 13.7291 6.25047 13.6766 6.37108L12.6766 8.70233V8.70108L12.6753 8.70233L12.1503 7.05233C12.1441 7.00233 12.1316 6.95233 12.1128 6.90233L10.7566 2.88358C10.6797 2.65788 10.5291 2.4646 10.3291 2.33483C10.1719 2.23523 9.99075 2.17975 9.80472 2.17421C9.71049 2.17369 9.61673 2.18739 9.52659 2.21483C9.40022 2.25278 9.28277 2.31575 9.18121 2.4C9.07966 2.48425 8.99608 2.58806 8.93544 2.70525C8.87481 2.82244 8.83835 2.95063 8.82824 3.08219C8.81813 3.21375 8.83457 3.346 8.87659 3.47108L10.0878 7.05858L9.83784 7.16483L8.15034 2.60858C8.07598 2.41034 7.94409 2.23884 7.77159 2.11608C7.60654 2.00087 7.41153 1.93616 7.21034 1.92983C7.05186 1.92915 6.89555 1.96676 6.75472 2.03948C6.6139 2.1122 6.49273 2.21787 6.40153 2.34749C6.31033 2.47711 6.2518 2.62684 6.23092 2.78395C6.21003 2.94106 6.22742 3.10089 6.28159 3.24983L8.01409 7.92108L7.82659 7.99608H7.82534L6.00034 3.95233C5.91994 3.77162 5.78957 3.61766 5.62458 3.50859C5.45958 3.39952 5.26685 3.33988 5.06909 3.33671C4.94534 3.33671 4.82222 3.36171 4.70784 3.40858C4.58557 3.45911 4.47475 3.53377 4.382 3.62812C4.28926 3.72246 4.21649 3.83454 4.16806 3.95766C4.11964 4.08077 4.09654 4.21239 4.10015 4.34464C4.10376 4.47688 4.13401 4.60705 4.18909 4.72733L6.01284 8.75608H6.01222L6.01284 8.75858L5.74409 8.87108L4.36909 6.12733C4.25739 5.90693 4.06617 5.73715 3.83409 5.65233V5.65108C3.70646 5.60462 3.57069 5.58465 3.43509 5.59239C3.29948 5.60012 3.16687 5.63541 3.04534 5.69608C2.81178 5.81394 2.63453 6.01966 2.5525 6.26808C2.47048 6.5165 2.49038 6.78732 2.60784 7.02108L3.92034 9.63983L5.81409 14.0898L5.82659 14.0836L6.73784 16.2248L14.9966 12.7142L15.2047 13.203L14.2797 13.5967L15.3028 16.0017C15.3403 15.9663 15.3762 15.929 15.4103 15.8898C15.7853 15.4586 15.9066 14.8348 15.6691 14.2711L14.4628 11.4398C14.4691 11.2836 14.4753 11.1273 14.4753 10.9648C14.4816 10.0836 14.8628 8.91483 15.5128 7.17733C15.6128 6.90233 15.6028 6.61171 15.4966 6.36483M14.8503 16.2955L13.7903 13.8036L13.0985 14.0973L14.1541 16.5911L14.8503 16.2955ZM13.6653 16.7992L12.6091 14.3055L11.911 14.6023L12.9728 17.0936L13.6653 16.7992ZM12.4841 17.3017L11.4216 14.8105L10.7228 15.1073L11.7878 17.5973L12.4841 17.3017ZM11.2991 17.8055L10.2341 15.3155L9.53659 15.6117L10.5953 18.1042L11.2991 17.8055ZM10.1066 18.3117L9.04784 15.8198L8.35409 16.1148L9.41097 18.6073L9.42534 18.6011L10.1066 18.3117ZM7.86472 16.3223L6.94597 16.713L7.40159 17.783C7.52437 18.0711 7.73172 18.3151 7.99621 18.4829C8.2607 18.6506 8.56987 18.7341 8.88284 18.7223L7.86472 16.3223Z" fill="#33C0DB"/>
</svg>
