<svg width="33" height="22" viewBox="0 0 33 22" fill="none" xmlns="http://www.w3.org/2000/svg">
<path d="M12.9722 5.23462H20.0312V16.764H12.9722V5.23462Z" fill="#FF5F00"/>
<path d="M13.6992 11.0003C13.6983 9.89014 13.95 8.79431 14.4351 7.79575C14.9203 6.79719 15.6262 5.92208 16.4995 5.23663C15.4179 4.38659 14.1189 3.85799 12.7511 3.71126C11.3833 3.56453 10.0017 3.80559 8.76442 4.40689C7.5271 5.00818 6.48391 5.94545 5.75408 7.11158C5.02424 8.2777 4.63721 9.62564 4.63721 11.0013C4.63721 12.377 5.02424 13.7249 5.75408 14.8911C6.48391 16.0572 7.5271 16.9945 8.76442 17.5958C10.0017 18.1971 11.3833 18.4381 12.7511 18.2914C14.1189 18.1447 15.4179 17.6161 16.4995 16.766C15.626 16.0804 14.9198 15.2049 14.4347 14.206C13.9495 13.207 13.698 12.1108 13.6992 11.0003V11.0003Z" fill="#EB001B"/>
<path d="M27.6625 15.5442V15.3079H27.7643V15.259H27.522V15.3079H27.6177V15.5442L27.6625 15.5442ZM28.1329 15.5442V15.2591H28.0596L27.9741 15.4627L27.8885 15.259H27.8152V15.5442H27.8682V15.3283L27.9476 15.5136H28.0026L28.082 15.3283V15.5442H28.1329Z" fill="#F79E1B"/>
<path d="M28.3629 11.0005C28.3629 12.3763 27.9758 13.7244 27.2458 14.8905C26.5159 16.0567 25.4725 16.9939 24.235 17.5952C22.9975 18.1964 21.6159 18.4373 20.248 18.2903C18.88 18.1434 17.5811 17.6145 16.4995 16.7642C17.3725 16.0781 18.0782 15.2028 18.5635 14.2042C19.0488 13.2056 19.301 12.1098 19.301 10.9995C19.301 9.88922 19.0488 8.79344 18.5635 7.79483C18.0782 6.79622 17.3725 5.92087 16.4995 5.23481C17.5811 4.38449 18.88 3.85563 20.248 3.70869C21.6159 3.56175 22.9976 3.80265 24.235 4.40386C25.4725 5.00508 26.5159 5.94234 27.2458 7.10851C27.9758 8.27468 28.3629 9.62271 28.3629 10.9985V11.0005Z" fill="#F79E1B"/>
</svg>
