<svg width="24" height="24" viewBox="0 0 24 24" fill="none" xmlns="http://www.w3.org/2000/svg">
<g clip-path="url(#clip0_260_6035)">
<path d="M2.25 21H21.75" stroke="#1F2933" stroke-width="1.5" stroke-linecap="round" stroke-linejoin="round"/>
<path d="M5.25 21V3.75C5.25 3.55109 5.32902 3.36032 5.46967 3.21967C5.61032 3.07902 5.80109 3 6 3H18C18.1989 3 18.3897 3.07902 18.5303 3.21967C18.671 3.36032 18.75 3.55109 18.75 3.75V21" stroke="#1F2933" stroke-width="1.5" stroke-linecap="round" stroke-linejoin="round"/>
<path d="M15 3C15.1989 3 15.3897 3.07902 15.5303 3.21967C15.671 3.36032 15.75 3.55109 15.75 3.75V21" stroke="#1F2933" stroke-width="1.5" stroke-linecap="round" stroke-linejoin="round"/>
<path d="M12.375 13.5C12.9963 13.5 13.5 12.9963 13.5 12.375C13.5 11.7537 12.9963 11.25 12.375 11.25C11.7537 11.25 11.25 11.7537 11.25 12.375C11.25 12.9963 11.7537 13.5 12.375 13.5Z" fill="#1F2933"/>
</g>
<defs>
<clipPath id="clip0_260_6035">
<rect width="24" height="24" fill="white"/>
</clipPath>
</defs>
</svg>
