<svg width="20" height="20" viewBox="0 0 20 20" fill="none" xmlns="http://www.w3.org/2000/svg">
<g clip-path="url(#clip0_3317_8308)">
<path d="M10.5741 2.25727L12.389 6.58227C12.4329 6.68724 12.5047 6.77822 12.5965 6.8454C12.6883 6.91259 12.7967 6.95343 12.9101 6.96352L17.5554 7.36509C17.6787 7.37499 17.7962 7.42124 17.8932 7.49797C17.9901 7.5747 18.0622 7.67847 18.1001 7.79615C18.1381 7.91383 18.1403 8.04013 18.1065 8.15906C18.0727 8.278 18.0043 8.38423 17.9101 8.46431L14.3859 11.5385C14.3002 11.6138 14.2365 11.7108 14.2016 11.8193C14.1666 11.9279 14.1618 12.0438 14.1874 12.1549L15.2437 16.7284C15.2716 16.8478 15.2637 16.9728 15.2211 17.0879C15.1784 17.2029 15.1029 17.3028 15.0039 17.3752C14.9048 17.4476 14.7867 17.4892 14.6641 17.4949C14.5416 17.5006 14.4201 17.4701 14.3148 17.4073L10.3226 14.9854C10.2256 14.9264 10.1142 14.8952 10.0007 14.8952C9.88718 14.8952 9.77584 14.9264 9.67883 14.9854L5.68665 17.4073C5.58131 17.4701 5.4598 17.5006 5.33727 17.4949C5.21473 17.4892 5.09659 17.4476 4.99755 17.3752C4.89851 17.3028 4.82297 17.2029 4.78032 17.0879C4.73768 16.9728 4.72983 16.8478 4.75774 16.7284L5.81399 12.1549C5.83966 12.0438 5.83477 11.9279 5.79983 11.8193C5.76489 11.7108 5.70121 11.6138 5.61555 11.5385L2.09133 8.46431C1.99711 8.38423 1.92877 8.278 1.89494 8.15906C1.86111 8.04013 1.86332 7.91383 1.90129 7.79615C1.93926 7.67847 2.01129 7.5747 2.10825 7.49797C2.20522 7.42124 2.32276 7.37499 2.44602 7.36509L7.09133 6.96352C7.20467 6.95343 7.3131 6.91259 7.40492 6.8454C7.49675 6.77822 7.5685 6.68724 7.61243 6.58227L9.42727 2.25727C9.47574 2.14546 9.55585 2.05025 9.65774 1.98337C9.75962 1.91649 9.87883 1.88086 10.0007 1.88086C10.1226 1.88086 10.2418 1.91649 10.3437 1.98337C10.4456 2.05025 10.5257 2.14546 10.5741 2.25727Z" stroke="#1F2933" stroke-width="1.25" stroke-linecap="round" stroke-linejoin="round"/>
</g>
<defs>
<clipPath id="clip0_3317_8308">
<rect width="20" height="20" fill="white"/>
</clipPath>
</defs>
</svg>
