<svg width="20" height="20" viewBox="0 0 20 20" fill="none" xmlns="http://www.w3.org/2000/svg">
<g clip-path="url(#clip0_1149_4572)">
<path d="M6.25 11.875H4.375C4.20924 11.875 4.05027 11.8092 3.93306 11.6919C3.81585 11.5747 3.75 11.4158 3.75 11.25L3.75 3.75C3.75 3.58424 3.81585 3.42527 3.93306 3.30806C4.05027 3.19085 4.20924 3.125 4.375 3.125L15.625 3.125C15.7908 3.125 15.9497 3.19085 16.0669 3.30806C16.1842 3.42527 16.25 3.58424 16.25 3.75V11.25C16.25 11.4158 16.1842 11.5747 16.0669 11.6919C15.9497 11.8092 15.7908 11.875 15.625 11.875H13.75" stroke="#33C0DB" stroke-width="1.5" stroke-linecap="round" stroke-linejoin="round"/>
<path d="M13.125 15L10 18.125L6.875 15" stroke="#33C0DB" stroke-width="1.5" stroke-linecap="round" stroke-linejoin="round"/>
<path d="M10 18.125L10 9.375" stroke="#33C0DB" stroke-width="1.5" stroke-linecap="round" stroke-linejoin="round"/>
</g>
<defs>
<clipPath id="clip0_1149_4572">
<rect width="20" height="20" fill="white" transform="matrix(-1 0 0 -1 20 20)"/>
</clipPath>
</defs>
</svg>
