<svg width="32" height="32" viewBox="0 0 32 32" fill="none" xmlns="http://www.w3.org/2000/svg">
<g clip-path="url(#clip0_771_2044)">
<path d="M26 5H10C9.44772 5 9 5.44772 9 6V22C9 22.5523 9.44772 23 10 23H26C26.5523 23 27 22.5523 27 22V6C27 5.44772 26.5523 5 26 5Z" stroke="#849AB8" stroke-width="1.5" stroke-linecap="round" stroke-linejoin="round"/>
<path d="M15 13C16.1046 13 17 12.1046 17 11C17 9.89543 16.1046 9 15 9C13.8954 9 13 9.89543 13 11C13 12.1046 13.8954 13 15 13Z" stroke="#849AB8" stroke-width="1.5" stroke-linecap="round" stroke-linejoin="round"/>
<path d="M23 23V26C23 26.2652 22.8946 26.5196 22.7071 26.7071C22.5196 26.8946 22.2652 27 22 27H6C5.73478 27 5.48043 26.8946 5.29289 26.7071C5.10536 26.5196 5 26.2652 5 26V10C5 9.73478 5.10536 9.48043 5.29289 9.29289C5.48043 9.10536 5.73478 9 6 9H9" stroke="#849AB8" stroke-width="1.5" stroke-linecap="round" stroke-linejoin="round"/>
<path d="M12.0859 23.0008L21.7922 13.2933C21.8851 13.2003 21.9953 13.1266 22.1167 13.0762C22.2381 13.0259 22.3683 13 22.4997 13C22.6311 13 22.7612 13.0259 22.8826 13.0762C23.004 13.1266 23.1143 13.2003 23.2072 13.2933L26.9997 17.087" stroke="#849AB8" stroke-width="1.5" stroke-linecap="round" stroke-linejoin="round"/>
</g>
<defs>
<clipPath id="clip0_771_2044">
<rect width="32" height="32" fill="white"/>
</clipPath>
</defs>
</svg>
