<svg width="20" height="20" viewBox="0 0 20 20" fill="none" xmlns="http://www.w3.org/2000/svg">
<g clip-path="url(#clip0_3317_8480)">
<path d="M7.5 16.5H12.5" stroke="#ffffff" stroke-width="1.25" stroke-linecap="round" stroke-linejoin="round"/>
<path d="M10 13.375V16.5" stroke="#ffffff" stroke-width="1.25" stroke-linecap="round" stroke-linejoin="round"/>
<path d="M4.53125 10H3.75C3.08696 10 2.45107 9.73661 1.98223 9.26777C1.51339 8.79893 1.25 8.16304 1.25 7.5V6.25C1.25 6.08424 1.31585 5.92527 1.43306 5.80806C1.55027 5.69085 1.70924 5.625 1.875 5.625H4.375" stroke="#ffffff" stroke-width="1.25" stroke-linecap="round" stroke-linejoin="round"/>
<path d="M15.4688 9H16.25C16.913 9 17.5489 8.73661 18.0178 8.26777C18.4866 7.79893 18.75 7.16304 18.75 6.5V5.25C18.75 5.08424 18.6842 4.92527 18.5669 4.80806C18.4497 4.69085 18.2908 4.625 18.125 4.625H15.625" stroke="#ffffff" stroke-width="1.25" stroke-linecap="round" stroke-linejoin="round"/>
<path d="M5 2.75H15C15.1658 2.75 15.3247 2.81585 15.4419 2.93306C15.5592 3.05027 15.625 3.20924 15.625 3.375V7.67969C15.625 10.7812 13.1445 13.3516 10.043 13.375C9.30068 13.3807 8.5646 13.2394 7.87718 12.9592C7.18975 12.6791 6.56458 12.2656 6.03769 11.7427C5.5108 11.2198 5.09262 10.5978 4.80725 9.91256C4.52188 9.22729 4.37498 8.49231 4.375 7.75V3.375C4.375 3.20924 4.44085 3.05027 4.55806 2.93306C4.67527 2.81585 4.83424 2.75 5 2.75Z" stroke="#ffffff" stroke-width="1.25" stroke-linecap="round" stroke-linejoin="round"/>
</g>
<defs>
<clipPath id="clip0_3317_8480">
<rect width="20" height="20" fill="white"/>
</clipPath>
</defs>
</svg>
