<svg width="22" height="22" viewBox="0 0 22 22" fill="none" xmlns="http://www.w3.org/2000/svg">
<g clip-path="url(#clip0_141_3145)">
<path d="M8.25 6.875V17.2451C8.24993 17.3581 8.22198 17.4695 8.16861 17.5691C8.11525 17.6688 8.03812 17.7538 7.94406 17.8166L6.99875 18.4465C6.90706 18.5076 6.80201 18.5458 6.69247 18.5579C6.58292 18.5699 6.47209 18.5554 6.36931 18.5156C6.26653 18.4759 6.17481 18.412 6.10189 18.3294C6.02897 18.2467 5.97699 18.1478 5.95031 18.0409L4.8125 13.75" stroke="#1F2933" stroke-width="1.5" stroke-linecap="round" stroke-linejoin="round"/>
<path d="M18.5625 17.1875C18.5625 17.3184 18.5251 17.4466 18.4546 17.557C18.3842 17.6674 18.2838 17.7554 18.1651 17.8106C18.0464 17.8659 17.9144 17.8861 17.7846 17.8689C17.6548 17.8516 17.5326 17.7977 17.4324 17.7134C12.9293 13.9356 8.25 13.75 8.25 13.75H4.8125C3.90082 13.75 3.02648 13.3878 2.38182 12.7432C1.73716 12.0985 1.375 11.2242 1.375 10.3125C1.375 9.40082 1.73716 8.52648 2.38182 7.88182C3.02648 7.23717 3.90082 6.875 4.8125 6.875H8.25C8.25 6.875 12.9293 6.68938 17.4324 2.91242C17.5326 2.82819 17.6547 2.77427 17.7844 2.75702C17.9141 2.73977 18.046 2.7599 18.1647 2.81504C18.2834 2.87018 18.3838 2.95804 18.4543 3.0683C18.5248 3.17856 18.5623 3.30665 18.5625 3.4375V17.1875Z" stroke="#1F2933" stroke-width="1.5" stroke-linecap="round" stroke-linejoin="round"/>
</g>
<defs>
<clipPath id="clip0_141_3145">
<rect width="22" height="22" fill="white" transform="matrix(-1 0 0 1 22 0)"/>
</clipPath>
</defs>
</svg>
