<svg width="24" height="24" viewBox="0 0 24 24" fill="none" xmlns="http://www.w3.org/2000/svg">
<g clip-path="url(#clip0_141_2314)">
<path d="M10.8425 6.43694L10.934 17.5739C10.9398 17.9679 11.1004 18.3437 11.3812 18.6202C11.6619 18.8967 12.0401 19.0517 12.4341 19.0516C12.8282 19.0515 13.2063 18.8964 13.4869 18.6198C13.7675 18.3431 13.928 17.9672 13.9336 17.5732L13.8428 4.31562C13.8428 3.51988 13.5267 2.75673 12.964 2.19406C12.4014 1.63138 11.6382 1.31528 10.8425 1.31528C10.0467 1.31528 9.28359 1.63138 8.72092 2.19406C8.15825 2.75673 7.84214 3.51988 7.84214 4.31562L7.93362 17.5739C7.94329 18.761 8.42164 19.8961 9.26448 20.7321C10.1073 21.5681 11.2463 22.0372 12.4335 22.0372C13.6206 22.0372 14.7596 21.5681 15.6025 20.7321C16.4453 19.8961 16.9237 18.761 16.9333 17.5739L16.9413 6.7021" stroke="#1F2933" stroke-width="1.5" stroke-linecap="round" stroke-linejoin="round"/>
</g>
<defs>
<clipPath id="clip0_141_2314">
<rect width="24" height="24" fill="white"/>
</clipPath>
</defs>
</svg>
