<svg width="19" height="19" viewBox="0 0 19 19" fill="none" xmlns="http://www.w3.org/2000/svg">
<path d="M12.6616 11.6252C12.7654 11.5561 12.8849 11.514 13.0091 11.5027C13.1334 11.4914 13.2585 11.5113 13.3731 11.5606L17.7944 13.5415C17.9434 13.6052 18.0677 13.7154 18.1489 13.8557C18.23 13.9959 18.2635 14.1587 18.2444 14.3196C18.0987 15.4081 17.5627 16.4066 16.736 17.1295C15.9093 17.8524 14.8482 18.2505 13.75 18.2496C10.3685 18.2496 7.12548 16.9063 4.73439 14.5152C2.3433 12.1241 1 8.88112 1 5.49961C0.999161 4.40143 1.3972 3.34032 2.12009 2.51361C2.84298 1.68691 3.84152 1.15089 4.93 1.00524C5.09091 0.986123 5.25368 1.01963 5.39395 1.10075C5.53422 1.18187 5.64444 1.30624 5.70813 1.45524L7.68906 5.88024C7.73774 5.99389 7.75756 6.11781 7.74676 6.24098C7.73596 6.36414 7.69489 6.48272 7.62719 6.58618L5.62375 8.96836C5.55269 9.0756 5.51066 9.19944 5.50179 9.32777C5.49291 9.45611 5.51749 9.58456 5.57313 9.70055C6.34844 11.2877 7.98906 12.9087 9.58094 13.6765C9.69755 13.7319 9.82658 13.7559 9.95531 13.7462C10.084 13.7365 10.208 13.6934 10.315 13.6212L12.6616 11.6252Z" stroke="#1F2933" stroke-width="1.5" stroke-linecap="round" stroke-linejoin="round"/>
</svg>
