<svg width="21" height="20" viewBox="0 0 21 20" fill="none" xmlns="http://www.w3.org/2000/svg">
<g clip-path="url(#clip0_3317_8039)">
<path d="M13.8485 5.9375C13.8485 5.5231 14.0116 5.12567 14.3018 4.83265C14.5921 4.53962 14.9858 4.375 15.3963 4.375C15.8067 4.375 16.2004 4.53962 16.4907 4.83265C16.7809 5.12567 16.944 5.5231 16.944 5.9375V11.875C16.944 12.6958 16.7839 13.5085 16.4727 14.2668C16.1616 15.0251 15.7056 15.7141 15.1307 16.2944C14.5558 16.8748 13.8733 17.3352 13.1222 17.6492C12.371 17.9633 11.566 18.125 10.753 18.125C7.33397 18.125 6.05165 16.4625 3.53113 11.0938C3.32912 10.7351 3.27584 10.3103 3.38293 9.91209C3.49002 9.5139 3.74877 9.17463 4.10272 8.96832C4.45668 8.76201 4.87709 8.70542 5.27223 8.81088C5.66737 8.91634 6.00514 9.1753 6.21185 9.53125L7.65745 11.875V4.6875C7.65745 4.2731 7.82052 3.87567 8.11078 3.58265C8.40104 3.28962 8.79472 3.125 9.20521 3.125C9.61571 3.125 10.0094 3.28962 10.2996 3.58265C10.5899 3.87567 10.753 4.2731 10.753 4.6875" stroke="#1F2933" stroke-width="1.25" stroke-linecap="round" stroke-linejoin="round"/>
<path d="M10.7539 9.375V3.4375C10.7539 3.0231 10.917 2.62567 11.2072 2.33265C11.4975 2.03962 11.8912 1.875 12.3017 1.875C12.7122 1.875 13.1058 2.03962 13.3961 2.33265C13.6864 2.62567 13.8494 3.0231 13.8494 3.4375V9.375" stroke="#1F2933" stroke-width="1.25" stroke-linecap="round" stroke-linejoin="round"/>
</g>
<defs>
<clipPath id="clip0_3317_8039">
<rect width="19.8113" height="20" fill="white" transform="translate(0.848633)"/>
</clipPath>
</defs>
</svg>
