<svg width="48" height="48" viewBox="0 0 48 48" fill="none" xmlns="http://www.w3.org/2000/svg">
<path d="M18 19.5C17.7033 19.5 17.4133 19.412 17.1666 19.2472C16.92 19.0824 16.7277 18.8481 16.6142 18.574C16.5006 18.2999 16.4709 17.9983 16.5288 17.7074C16.5867 17.4164 16.7296 17.1491 16.9393 16.9393C17.1491 16.7296 17.4164 16.5867 17.7074 16.5288C17.9983 16.4709 18.2999 16.5006 18.574 16.6142C18.8481 16.7277 19.0824 16.92 19.2472 17.1666C19.412 17.4133 19.5 17.7033 19.5 18C19.5 18.3978 19.342 18.7794 19.0607 19.0607C18.7794 19.342 18.3978 19.5 18 19.5ZM30 28.5C29.7033 28.5 29.4133 28.588 29.1666 28.7528C28.92 28.9176 28.7277 29.1519 28.6142 29.426C28.5006 29.7001 28.4709 30.0017 28.5288 30.2926C28.5867 30.5836 28.7296 30.8509 28.9393 31.0607C29.1491 31.2704 29.4164 31.4133 29.7074 31.4712C29.9983 31.5291 30.2999 31.4994 30.574 31.3858C30.8481 31.2723 31.0824 31.08 31.2472 30.8334C31.412 30.5867 31.5 30.2967 31.5 30C31.5 29.6022 31.342 29.2206 31.0607 28.9393C30.7794 28.658 30.3978 28.5 30 28.5ZM45 24C45 25.9575 43.5919 27.4256 42.3488 28.7212C41.6419 29.46 40.9106 30.2213 40.635 30.8906C40.38 31.5037 40.365 32.52 40.35 33.5044C40.3219 35.3344 40.2919 37.4081 38.85 38.85C37.4081 40.2919 35.3344 40.3219 33.5044 40.35C32.52 40.365 31.5037 40.38 30.8906 40.635C30.2213 40.9106 29.46 41.6419 28.7212 42.3488C27.4256 43.5919 25.9575 45 24 45C22.0425 45 20.5744 43.5919 19.2787 42.3488C18.54 41.6419 17.7788 40.9106 17.1094 40.635C16.4963 40.38 15.48 40.365 14.4956 40.35C12.6656 40.3219 10.5919 40.2919 9.15 38.85C7.70812 37.4081 7.67812 35.3344 7.65 33.5044C7.635 32.52 7.62 31.5037 7.365 30.8906C7.08937 30.2213 6.35812 29.46 5.65125 28.7212C4.40812 27.4256 3 25.9575 3 24C3 22.0425 4.40812 20.5744 5.65125 19.2787C6.35812 18.54 7.08937 17.7788 7.365 17.1094C7.62 16.4963 7.635 15.48 7.65 14.4956C7.67812 12.6656 7.70812 10.5919 9.15 9.15C10.5919 7.70812 12.6656 7.67812 14.4956 7.65C15.48 7.635 16.4963 7.62 17.1094 7.365C17.7788 7.08937 18.54 6.35812 19.2787 5.65125C20.5744 4.40812 22.0425 3 24 3C25.9575 3 27.4256 4.40812 28.7212 5.65125C29.46 6.35812 30.2213 7.08937 30.8906 7.365C31.5037 7.62 32.52 7.635 33.5044 7.65C35.3344 7.67812 37.4081 7.70812 38.85 9.15C40.2919 10.5919 40.3219 12.6656 40.35 14.4956C40.365 15.48 40.38 16.4963 40.635 17.1094C40.9106 17.7788 41.6419 18.54 42.3488 19.2787C43.5919 20.5744 45 22.0425 45 24ZM18 22.5C18.89 22.5 19.76 22.2361 20.5001 21.7416C21.2401 21.2471 21.8169 20.5443 22.1575 19.7221C22.4981 18.8998 22.5872 17.995 22.4135 17.1221C22.2399 16.2492 21.8113 15.4474 21.182 14.818C20.5526 14.1887 19.7508 13.7601 18.8779 13.5865C18.005 13.4128 17.1002 13.5019 16.2779 13.8425C15.4557 14.1831 14.7529 14.7599 14.2584 15.4999C13.7639 16.24 13.5 17.11 13.5 18C13.5 19.1935 13.9741 20.3381 14.818 21.182C15.6619 22.0259 16.8065 22.5 18 22.5ZM32.5613 17.5613C32.7006 17.4219 32.8112 17.2564 32.8866 17.0743C32.962 16.8923 33.0008 16.6971 33.0008 16.5C33.0008 16.3029 32.962 16.1077 32.8866 15.9257C32.8112 15.7436 32.7006 15.5781 32.5613 15.4387C32.4219 15.2994 32.2564 15.1888 32.0743 15.1134C31.8923 15.038 31.6971 14.9992 31.5 14.9992C31.3029 14.9992 31.1077 15.038 30.9257 15.1134C30.7436 15.1888 30.5781 15.2994 30.4387 15.4387L15.4387 30.4387C15.2994 30.5781 15.1888 30.7436 15.1134 30.9257C15.038 31.1077 14.9992 31.3029 14.9992 31.5C14.9992 31.6971 15.038 31.8923 15.1134 32.0743C15.1888 32.2564 15.2994 32.4219 15.4387 32.5613C15.7202 32.8427 16.102 33.0008 16.5 33.0008C16.6971 33.0008 16.8923 32.962 17.0743 32.8866C17.2564 32.8112 17.4219 32.7006 17.5613 32.5613L32.5613 17.5613ZM34.5 30C34.5 29.11 34.2361 28.24 33.7416 27.4999C33.2471 26.7599 32.5443 26.1831 31.7221 25.8425C30.8998 25.5019 29.995 25.4128 29.1221 25.5865C28.2492 25.7601 27.4474 26.1887 26.818 26.818C26.1887 27.4474 25.7601 28.2492 25.5865 29.1221C25.4128 29.995 25.5019 30.8998 25.8425 31.7221C26.1831 32.5443 26.7599 33.2471 27.4999 33.7416C28.24 34.2361 29.11 34.5 30 34.5C31.1935 34.5 32.3381 34.0259 33.182 33.182C34.0259 32.3381 34.5 31.1935 34.5 30Z" fill="#33C0DB"/>
</svg>
