<svg width="19" height="22" viewBox="0 0 19 22" fill="none" xmlns="http://www.w3.org/2000/svg">
<path d="M18.7499 10.9905C18.7506 11.2577 18.6798 11.5203 18.545 11.751C18.4102 11.9818 18.2162 12.1723 17.983 12.303L2.24144 21.3039C2.01527 21.4321 1.75987 21.4999 1.49988 21.5008C1.26011 21.5003 1.02395 21.4423 0.811198 21.3317C0.598446 21.2212 0.4153 21.0612 0.277112 20.8653C0.138924 20.6693 0.0497212 20.4431 0.0169804 20.2056C-0.0157604 19.9681 0.00891531 19.7262 0.0889387 19.5001L2.653 12.0048C2.67827 11.9307 2.72612 11.8663 2.78985 11.8207C2.85357 11.7752 2.92997 11.7507 3.00831 11.7508H9.74988C9.85269 11.751 9.95446 11.7301 10.0488 11.6893C10.1432 11.6486 10.2282 11.5888 10.2986 11.5138C10.3689 11.4388 10.4231 11.3502 10.4577 11.2534C10.4923 11.1566 10.5067 11.0537 10.4999 10.9511C10.4829 10.7582 10.3936 10.5789 10.25 10.449C10.1064 10.3192 9.91909 10.2484 9.7255 10.2508H3.01488C2.93665 10.2509 2.86034 10.2266 2.79662 10.1812C2.73291 10.1358 2.68499 10.0716 2.65956 9.99764L0.0870637 2.49764C-0.0131152 2.21025 -0.023502 1.89919 0.0572829 1.60576C0.138068 1.31232 0.306202 1.05041 0.539358 0.854787C0.772515 0.659168 1.05966 0.539101 1.36267 0.510531C1.66567 0.481961 1.9702 0.546239 2.23581 0.69483L17.9858 9.68452C18.2175 9.81495 18.4103 10.0046 18.5446 10.2341C18.6788 10.4636 18.7497 10.7246 18.7499 10.9905Z" fill="#141F2B"/>
</svg>
