<svg width="48" height="48" viewBox="0 0 48 48" fill="none" xmlns="http://www.w3.org/2000/svg">
<g clip-path="url(#clip0_3135_51998)">
<path d="M12.0196 27.7118C12.0247 27.8134 12.009 27.915 11.9736 28.0104C11.9382 28.1057 11.8838 28.1929 11.8136 28.2666C11.7435 28.3402 11.6591 28.3988 11.5655 28.4389C11.472 28.4789 11.3713 28.4994 11.2696 28.4993H2.99709C2.65853 28.4998 2.32976 28.3858 2.06423 28.1757C1.7987 27.9657 1.61204 27.672 1.53459 27.3424C1.48637 27.1168 1.48859 26.8834 1.5411 26.6588C1.59361 26.4341 1.69511 26.2239 1.83834 26.0431C3.16173 24.288 4.91763 22.9062 6.93459 22.0324C6.04908 21.2251 5.36991 20.2173 4.95398 19.0934C4.53805 17.9696 4.39746 16.7625 4.54399 15.5732C4.69052 14.3838 5.1199 13.2469 5.79616 12.2577C6.47243 11.2684 7.3759 10.4556 8.43089 9.88728C9.48589 9.31898 10.6617 9.01175 11.8599 8.99132C13.058 8.9709 14.2436 9.23786 15.3174 9.76986C16.3911 10.3019 17.3218 11.0834 18.0314 12.049C18.741 13.0147 19.2089 14.1363 19.3958 15.3199C19.42 15.4791 19.3915 15.6418 19.3146 15.7833C19.2378 15.9248 19.1169 16.0373 18.9702 16.1037C16.8897 17.0655 15.1277 18.6024 13.8922 20.533C12.6566 22.4635 11.9991 24.7072 11.9971 26.9993C11.9971 27.2393 11.9971 27.4756 12.0196 27.7118ZM46.1446 26.0412C44.8243 24.2882 43.0724 22.9071 41.0596 22.0324C41.9451 21.2251 42.6243 20.2173 43.0402 19.0934C43.4561 17.9696 43.5967 16.7625 43.4502 15.5732C43.3037 14.3838 42.8743 13.2469 42.198 12.2577C41.5217 11.2684 40.6183 10.4556 39.5633 9.88728C38.5083 9.31898 37.3325 9.01175 36.1343 8.99132C34.9362 8.9709 33.7506 9.23786 32.6768 9.76986C31.6031 10.3019 30.6724 11.0834 29.9628 12.049C29.2532 13.0147 28.7853 14.1363 28.5983 15.3199C28.5742 15.4791 28.6027 15.6418 28.6795 15.7833C28.7564 15.9248 28.8773 16.0373 29.024 16.1037C31.1045 17.0655 32.8665 18.6024 34.102 20.533C35.3376 22.4635 35.9951 24.7072 35.9971 26.9993C35.9971 27.2393 35.9971 27.4756 35.9746 27.7118C35.9695 27.8134 35.9851 27.915 36.0205 28.0104C36.056 28.1057 36.1104 28.1929 36.1805 28.2666C36.2507 28.3402 36.3351 28.3988 36.4286 28.4389C36.5222 28.4789 36.6229 28.4994 36.7246 28.4993H44.9971C45.3356 28.4998 45.6644 28.3858 45.93 28.1757C46.1955 27.9657 46.3821 27.672 46.4596 27.3424C46.5081 27.1164 46.5059 26.8825 46.453 26.6575C46.4002 26.4324 46.298 26.222 46.154 26.0412H46.1446ZM29.4571 34.1374C30.9506 32.9936 32.0482 31.4106 32.5955 29.6107C33.1429 27.8109 33.1125 25.8848 32.5086 24.1032C31.9048 22.3215 30.7578 20.7739 29.2289 19.6777C27.7 18.5816 25.8661 17.9921 23.9849 17.9921C22.1037 17.9921 20.2698 18.5816 18.7409 19.6777C17.212 20.7739 16.065 22.3215 15.4612 24.1032C14.8573 25.8848 14.8269 27.8109 15.3743 29.6107C15.9216 31.4106 17.0192 32.9936 18.5127 34.1374C15.8625 35.2857 13.6495 37.2523 12.1977 39.7493C12.066 39.9774 11.9967 40.2361 11.9968 40.4994C11.9968 40.7627 12.0661 41.0214 12.1978 41.2495C12.3295 41.4775 12.5189 41.6668 12.747 41.7985C12.975 41.9301 13.2338 41.9994 13.4971 41.9993H34.4971C34.7604 41.9994 35.0191 41.9301 35.2472 41.7985C35.4753 41.6668 35.6647 41.4775 35.7964 41.2495C35.9281 41.0214 35.9974 40.7627 35.9974 40.4994C35.9974 40.2361 35.9281 39.9774 35.7965 39.7493C34.3416 37.2507 32.1245 35.284 29.4702 34.1374H29.4571Z" fill="#849AB8"/>
</g>
<defs>
<clipPath id="clip0_3135_51998">
<rect width="48" height="48" fill="white"/>
</clipPath>
</defs>
</svg>
